<svg xmlns="http://www.w3.org/2000/svg" width="400" height="400"><path fill="#FFBE55" d="M43.488 109.623C66.453 69.856 143.858 91.334 200 116.642c14.246 6.38 27.009 12.97 37.214 18.926 35.299 20.415 65.71 43.806 88.462 68.048l-15.736 14.459c-20.839-22.328-50.396-45.083-83.357-64.219a460.97 460.97 0 0 0-26.582-14.036c-68.262-33.387-126.954-38.704-138.224-19.565-19.352 33.813 72.938 103.35 111.643 125.891a460.552 460.552 0 0 0 26.581 14.036c68.262 33.385 127.165 38.701 138.224 19.562 3.614-6.592 2.127-17.012-4.68-29.771l18.926-9.996c12.973 24.881 9.356 41.257 4.04 50.4-20.412 35.301-89.737 23.818-156.51-6.805-12.548-5.741-25.095-12.12-37.214-19.137C112.174 235.3 14.566 159.81 43.488 109.623z"/><path fill="#FFBE55" d="M345.664 199.335h.022c15.221 8.805 20.453 28.356 11.659 43.578-8.835 15.301-28.331 20.465-43.579 11.673-15.248-8.819-20.479-28.292-11.671-43.572 8.789-15.196 28.324-20.472 43.569-11.679z"/><path fill="#2A94F4" d="M160.66 95.587c-8.933 29.345-13.823 66.349-13.823 104.412 0 91.227 28.068 160.198 53.163 160.198 25.092 0 53.163-68.971 53.163-160.198S225.092 39.802 200 39.802c-7.442 0-15.948 6.593-23.604 18.712l-17.862-11.269C173.419 23.428 189.367 18.537 200 18.537c48.273 0 74.429 93.849 74.429 181.462 0 87.614-26.155 181.463-74.429 181.463-48.272 0-74.428-93.849-74.428-181.463 0-40.617 5.103-78.895 14.886-110.579l20.202 6.167z"/><path fill="#2A94F4" d="M157.47 39.802c17.589 0 31.897 15.019 31.897 32.606 0 17.588-14.309 31.899-31.897 31.899-17.591 0-31.897-14.311-31.897-31.899-.001-17.587 14.306-32.606 31.897-32.606z"/><path fill="#0E538C" d="M162.786 135.565c10.206-5.953 23.179-12.546 37.214-18.925 56.354-25.305 133.758-46.57 156.513-7.017 28.918 49.97-68.475 125.465-119.299 154.81A481.482 481.482 0 0 1 200 283.785c-22.755 10.419-45.083 18.289-65.922 23.179l-4.893-20.84c21.905-4.89 46.36-14.035 70.814-25.941 8.93-4.253 17.862-8.933 26.582-14.036 41.467-24.031 130.354-93.353 111.642-125.891-11.271-19.139-69.962-13.822-138.224 19.563a459.904 459.904 0 0 0-26.581 14.035c-41.467 24.031-130.357 93.354-111.643 125.891 3.827 6.593 13.823 10.419 28.068 11.059l-.85 21.265c-27.858-1.276-40.19-12.548-45.507-21.691-28.92-49.975 68.477-125.466 119.3-154.813z"/><path fill="#0E538C" d="M138.396 284.665c8.785 15.254 3.541 34.797-11.68 43.591-15.231 8.783-34.741 3.617-43.571-11.693-8.783-15.191-3.644-34.711 11.674-43.558 15.231-8.786 34.765-3.562 43.577 11.66z"/><path fill="#FFBE55" d="M168.103 200c0-17.65 14.246-31.897 31.897-31.897 17.649 0 31.897 14.247 31.897 31.897 0 17.652-14.248 31.899-31.897 31.899-17.651-.001-31.897-14.247-31.897-31.899z"/></svg>